<mxfile host="app.diagrams.net" agent="Mozilla/5.0 (Windows NT 10.0; Win64; x64; rv:132.0) Gecko/20100101 Firefox/132.0" version="24.8.4">
  <diagram name="Page-1" id="5swjjxj_3Wt_qUozXZRy">
    <mxGraphModel dx="778" dy="-707" grid="1" gridSize="10" guides="1" tooltips="1" connect="1" arrows="1" fold="1" page="1" pageScale="1" pageWidth="850" pageHeight="1100" math="0" shadow="0">
      <root>
        <mxCell id="0" />
        <mxCell id="1" parent="0" />
        <mxCell id="I-rz6IewuSnhswJpcsk6-21" style="edgeStyle=orthogonalEdgeStyle;rounded=0;orthogonalLoop=1;jettySize=auto;html=1;entryX=0.5;entryY=1;entryDx=0;entryDy=0;" parent="1" source="I-rz6IewuSnhswJpcsk6-1" target="I-rz6IewuSnhswJpcsk6-8" edge="1">
          <mxGeometry relative="1" as="geometry" />
        </mxCell>
        <mxCell id="I-rz6IewuSnhswJpcsk6-67" value="Register" style="edgeLabel;html=1;align=center;verticalAlign=middle;resizable=0;points=[];" parent="I-rz6IewuSnhswJpcsk6-21" vertex="1" connectable="0">
          <mxGeometry x="0.1498" relative="1" as="geometry">
            <mxPoint as="offset" />
          </mxGeometry>
        </mxCell>
        <mxCell id="I-rz6IewuSnhswJpcsk6-22" style="edgeStyle=orthogonalEdgeStyle;rounded=0;orthogonalLoop=1;jettySize=auto;html=1;entryX=0.5;entryY=0;entryDx=0;entryDy=0;" parent="1" source="I-rz6IewuSnhswJpcsk6-1" target="I-rz6IewuSnhswJpcsk6-7" edge="1">
          <mxGeometry relative="1" as="geometry" />
        </mxCell>
        <mxCell id="I-rz6IewuSnhswJpcsk6-23" style="edgeStyle=orthogonalEdgeStyle;rounded=0;orthogonalLoop=1;jettySize=auto;html=1;entryX=0;entryY=0.5;entryDx=0;entryDy=0;" parent="1" target="I-rz6IewuSnhswJpcsk6-13" edge="1">
          <mxGeometry relative="1" as="geometry">
            <mxPoint x="430" y="1820" as="sourcePoint" />
          </mxGeometry>
        </mxCell>
        <mxCell id="I-rz6IewuSnhswJpcsk6-1" value="Member" style="shape=umlActor;verticalLabelPosition=bottom;verticalAlign=top;html=1;outlineConnect=0;strokeWidth=2;fillColor=#1ba1e2;fontColor=default;strokeColor=#006EAF;" parent="1" vertex="1">
          <mxGeometry x="390" y="1790" width="30" height="60" as="geometry" />
        </mxCell>
        <mxCell id="I-rz6IewuSnhswJpcsk6-36" style="edgeStyle=orthogonalEdgeStyle;rounded=0;orthogonalLoop=1;jettySize=auto;html=1;exitX=0;exitY=0.5;exitDx=0;exitDy=0;" parent="1" source="I-rz6IewuSnhswJpcsk6-6" target="I-rz6IewuSnhswJpcsk6-15" edge="1">
          <mxGeometry relative="1" as="geometry" />
        </mxCell>
        <mxCell id="I-rz6IewuSnhswJpcsk6-37" style="edgeStyle=orthogonalEdgeStyle;rounded=0;orthogonalLoop=1;jettySize=auto;html=1;exitX=0.5;exitY=1;exitDx=0;exitDy=0;entryX=1;entryY=0.5;entryDx=0;entryDy=0;" parent="1" source="I-rz6IewuSnhswJpcsk6-6" target="I-rz6IewuSnhswJpcsk6-16" edge="1">
          <mxGeometry relative="1" as="geometry" />
        </mxCell>
        <mxCell id="I-rz6IewuSnhswJpcsk6-6" value="Chat" style="rounded=1;whiteSpace=wrap;html=1;gradientColor=none;glass=0;shadow=0;" parent="1" vertex="1">
          <mxGeometry x="180" y="1850" width="90" height="40" as="geometry" />
        </mxCell>
        <mxCell id="I-rz6IewuSnhswJpcsk6-101" style="edgeStyle=orthogonalEdgeStyle;rounded=0;orthogonalLoop=1;jettySize=auto;html=1;exitX=0.5;exitY=1;exitDx=0;exitDy=0;" parent="1" source="I-rz6IewuSnhswJpcsk6-7" target="I-rz6IewuSnhswJpcsk6-86" edge="1">
          <mxGeometry relative="1" as="geometry" />
        </mxCell>
        <mxCell id="I-rz6IewuSnhswJpcsk6-7" value="Post" style="rounded=1;whiteSpace=wrap;html=1;" parent="1" vertex="1">
          <mxGeometry x="400" y="1895" width="85" height="40" as="geometry" />
        </mxCell>
        <mxCell id="I-rz6IewuSnhswJpcsk6-74" style="edgeStyle=orthogonalEdgeStyle;rounded=0;orthogonalLoop=1;jettySize=auto;html=1;startArrow=classic;startFill=0;exitX=0.25;exitY=0;exitDx=0;exitDy=0;" parent="1" source="I-rz6IewuSnhswJpcsk6-8" target="I-rz6IewuSnhswJpcsk6-32" edge="1">
          <mxGeometry relative="1" as="geometry" />
        </mxCell>
        <mxCell id="I-rz6IewuSnhswJpcsk6-75" value="Prices&amp;nbsp;" style="edgeLabel;html=1;align=center;verticalAlign=middle;resizable=0;points=[];" parent="I-rz6IewuSnhswJpcsk6-74" vertex="1" connectable="0">
          <mxGeometry x="-0.3056" y="-1" relative="1" as="geometry">
            <mxPoint as="offset" />
          </mxGeometry>
        </mxCell>
        <mxCell id="I-rz6IewuSnhswJpcsk6-8" value="activity/event" style="rounded=1;whiteSpace=wrap;html=1;" parent="1" vertex="1">
          <mxGeometry x="225" y="1610" width="120" height="60" as="geometry" />
        </mxCell>
        <mxCell id="I-rz6IewuSnhswJpcsk6-24" value="\" style="edgeStyle=orthogonalEdgeStyle;rounded=0;orthogonalLoop=1;jettySize=auto;html=1;exitX=1;exitY=0.5;exitDx=0;exitDy=0;endArrow=classic;endFill=1;startArrow=openThin;startFill=0;" parent="1" source="I-rz6IewuSnhswJpcsk6-13" target="I-rz6IewuSnhswJpcsk6-40" edge="1">
          <mxGeometry relative="1" as="geometry">
            <mxPoint x="920" y="1870" as="targetPoint" />
          </mxGeometry>
        </mxCell>
        <mxCell id="I-rz6IewuSnhswJpcsk6-13" value="Ranks" style="rounded=1;whiteSpace=wrap;html=1;" parent="1" vertex="1">
          <mxGeometry x="465" y="1790" width="120" height="60" as="geometry" />
        </mxCell>
        <mxCell id="I-rz6IewuSnhswJpcsk6-15" value="Chat group" style="rounded=1;whiteSpace=wrap;html=1;" parent="1" vertex="1">
          <mxGeometry x="60" y="1670" width="90" height="40" as="geometry" />
        </mxCell>
        <mxCell id="I-rz6IewuSnhswJpcsk6-16" value="Private chat" style="rounded=1;whiteSpace=wrap;html=1;" parent="1" vertex="1">
          <mxGeometry x="80" y="1905" width="90" height="30" as="geometry" />
        </mxCell>
        <mxCell id="I-rz6IewuSnhswJpcsk6-18" style="edgeStyle=orthogonalEdgeStyle;rounded=0;orthogonalLoop=1;jettySize=auto;html=1;entryX=1;entryY=0.5;entryDx=0;entryDy=0;" parent="1" source="I-rz6IewuSnhswJpcsk6-1" target="I-rz6IewuSnhswJpcsk6-6" edge="1">
          <mxGeometry relative="1" as="geometry">
            <mxPoint x="390" y="1870" as="sourcePoint" />
          </mxGeometry>
        </mxCell>
        <mxCell id="I-rz6IewuSnhswJpcsk6-38" style="edgeStyle=orthogonalEdgeStyle;rounded=0;orthogonalLoop=1;jettySize=auto;html=1;" parent="1" source="I-rz6IewuSnhswJpcsk6-26" target="I-rz6IewuSnhswJpcsk6-1" edge="1">
          <mxGeometry relative="1" as="geometry" />
        </mxCell>
        <mxCell id="I-rz6IewuSnhswJpcsk6-69" value="Manage" style="edgeLabel;html=1;align=center;verticalAlign=middle;resizable=0;points=[];" parent="I-rz6IewuSnhswJpcsk6-38" vertex="1" connectable="0">
          <mxGeometry x="0.0965" y="3" relative="1" as="geometry">
            <mxPoint as="offset" />
          </mxGeometry>
        </mxCell>
        <mxCell id="I-rz6IewuSnhswJpcsk6-42" style="edgeStyle=orthogonalEdgeStyle;rounded=0;orthogonalLoop=1;jettySize=auto;html=1;" parent="1" source="I-rz6IewuSnhswJpcsk6-26" target="I-rz6IewuSnhswJpcsk6-32" edge="1">
          <mxGeometry relative="1" as="geometry" />
        </mxCell>
        <mxCell id="I-rz6IewuSnhswJpcsk6-70" value="Purchase request" style="edgeLabel;html=1;align=center;verticalAlign=middle;resizable=0;points=[];" parent="I-rz6IewuSnhswJpcsk6-42" vertex="1" connectable="0">
          <mxGeometry x="0.1285" relative="1" as="geometry">
            <mxPoint as="offset" />
          </mxGeometry>
        </mxCell>
        <mxCell id="I-rz6IewuSnhswJpcsk6-26" value="CACH" style="shape=umlActor;verticalLabelPosition=bottom;verticalAlign=top;html=1;outlineConnect=0;strokeWidth=3;fontSize=18;fontColor=default;fillColor=#6a00ff;strokeColor=#3700CC;" parent="1" vertex="1">
          <mxGeometry x="390" y="1630" width="30" height="60" as="geometry" />
        </mxCell>
        <mxCell id="I-rz6IewuSnhswJpcsk6-32" value="Request" style="rounded=1;whiteSpace=wrap;html=1;" parent="1" vertex="1">
          <mxGeometry x="515" y="1500" width="120" height="60" as="geometry" />
        </mxCell>
        <mxCell id="I-rz6IewuSnhswJpcsk6-94" style="edgeStyle=orthogonalEdgeStyle;rounded=0;orthogonalLoop=1;jettySize=auto;html=1;exitX=0.5;exitY=1;exitDx=0;exitDy=0;entryX=0.5;entryY=0;entryDx=0;entryDy=0;" parent="1" source="I-rz6IewuSnhswJpcsk6-40" target="I-rz6IewuSnhswJpcsk6-90" edge="1">
          <mxGeometry relative="1" as="geometry" />
        </mxCell>
        <mxCell id="I-rz6IewuSnhswJpcsk6-95" style="edgeStyle=orthogonalEdgeStyle;rounded=0;orthogonalLoop=1;jettySize=auto;html=1;exitX=0.5;exitY=1;exitDx=0;exitDy=0;entryX=0.5;entryY=0;entryDx=0;entryDy=0;" parent="1" source="I-rz6IewuSnhswJpcsk6-40" target="I-rz6IewuSnhswJpcsk6-92" edge="1">
          <mxGeometry relative="1" as="geometry" />
        </mxCell>
        <mxCell id="I-rz6IewuSnhswJpcsk6-96" style="edgeStyle=orthogonalEdgeStyle;rounded=0;orthogonalLoop=1;jettySize=auto;html=1;exitX=0.5;exitY=1;exitDx=0;exitDy=0;entryX=0.5;entryY=0;entryDx=0;entryDy=0;" parent="1" source="I-rz6IewuSnhswJpcsk6-40" target="I-rz6IewuSnhswJpcsk6-93" edge="1">
          <mxGeometry relative="1" as="geometry" />
        </mxCell>
        <mxCell id="I-rz6IewuSnhswJpcsk6-40" value="Technique&amp;nbsp;&lt;div&gt;(Describe, Image, Video)&lt;/div&gt;" style="rounded=1;whiteSpace=wrap;html=1;" parent="1" vertex="1">
          <mxGeometry x="625" y="1790" width="120" height="60" as="geometry" />
        </mxCell>
        <mxCell id="I-rz6IewuSnhswJpcsk6-63" style="edgeStyle=orthogonalEdgeStyle;rounded=0;orthogonalLoop=1;jettySize=auto;html=1;" parent="1" source="I-rz6IewuSnhswJpcsk6-43" target="I-rz6IewuSnhswJpcsk6-40" edge="1">
          <mxGeometry relative="1" as="geometry" />
        </mxCell>
        <mxCell id="I-rz6IewuSnhswJpcsk6-72" value="Update" style="edgeLabel;html=1;align=center;verticalAlign=middle;resizable=0;points=[];" parent="I-rz6IewuSnhswJpcsk6-63" vertex="1" connectable="0">
          <mxGeometry x="-0.0413" y="1" relative="1" as="geometry">
            <mxPoint as="offset" />
          </mxGeometry>
        </mxCell>
        <mxCell id="I-rz6IewuSnhswJpcsk6-43" value="Admin 3" style="shape=umlActor;verticalLabelPosition=bottom;verticalAlign=top;html=1;outlineConnect=0;fillColor=#6a00ff;strokeColor=#3700CC;fontColor=default;strokeWidth=3;" parent="1" vertex="1">
          <mxGeometry x="670" y="1350" width="30" height="60" as="geometry" />
        </mxCell>
        <mxCell id="I-rz6IewuSnhswJpcsk6-108" style="edgeStyle=orthogonalEdgeStyle;rounded=0;orthogonalLoop=1;jettySize=auto;html=1;exitX=0;exitY=1;exitDx=0;exitDy=0;exitPerimeter=0;" parent="1" source="I-rz6IewuSnhswJpcsk6-45" target="I-rz6IewuSnhswJpcsk6-47" edge="1">
          <mxGeometry relative="1" as="geometry" />
        </mxCell>
        <mxCell id="I-rz6IewuSnhswJpcsk6-45" value="Admin 1" style="shape=umlActor;verticalLabelPosition=bottom;verticalAlign=top;html=1;outlineConnect=0;fillColor=#6a00ff;strokeColor=#3700CC;fontColor=default;strokeWidth=3;" parent="1" vertex="1">
          <mxGeometry x="390" y="1350" width="30" height="60" as="geometry" />
        </mxCell>
        <mxCell id="I-rz6IewuSnhswJpcsk6-46" value="Admin 2" style="shape=umlActor;verticalLabelPosition=bottom;verticalAlign=top;html=1;outlineConnect=0;fillColor=#6a00ff;strokeColor=#3700CC;fontColor=default;strokeWidth=3;" parent="1" vertex="1">
          <mxGeometry x="560" y="1350" width="30" height="60" as="geometry" />
        </mxCell>
        <mxCell id="I-rz6IewuSnhswJpcsk6-61" style="edgeStyle=orthogonalEdgeStyle;rounded=0;orthogonalLoop=1;jettySize=auto;html=1;" parent="1" source="I-rz6IewuSnhswJpcsk6-47" target="I-rz6IewuSnhswJpcsk6-8" edge="1">
          <mxGeometry relative="1" as="geometry" />
        </mxCell>
        <mxCell id="I-rz6IewuSnhswJpcsk6-66" value="Create" style="edgeLabel;html=1;align=center;verticalAlign=middle;resizable=0;points=[];" parent="I-rz6IewuSnhswJpcsk6-61" vertex="1" connectable="0">
          <mxGeometry x="0.0922" y="-1" relative="1" as="geometry">
            <mxPoint as="offset" />
          </mxGeometry>
        </mxCell>
        <mxCell id="I-rz6IewuSnhswJpcsk6-47" value="Mod" style="shape=umlActor;verticalLabelPosition=bottom;verticalAlign=top;html=1;outlineConnect=0;fillColor=#6a00ff;fontColor=default;strokeColor=#3700CC;strokeWidth=3;" parent="1" vertex="1">
          <mxGeometry x="230" y="1430" width="30" height="60" as="geometry" />
        </mxCell>
        <mxCell id="I-rz6IewuSnhswJpcsk6-54" value="" style="endArrow=classic;startArrow=classic;html=1;rounded=0;" parent="1" source="I-rz6IewuSnhswJpcsk6-32" target="I-rz6IewuSnhswJpcsk6-46" edge="1">
          <mxGeometry width="50" height="50" relative="1" as="geometry">
            <mxPoint x="680" y="1570" as="sourcePoint" />
            <mxPoint x="730" y="1520" as="targetPoint" />
          </mxGeometry>
        </mxCell>
        <mxCell id="I-rz6IewuSnhswJpcsk6-71" value="Accept" style="edgeLabel;html=1;align=center;verticalAlign=middle;resizable=0;points=[];" parent="I-rz6IewuSnhswJpcsk6-54" vertex="1" connectable="0">
          <mxGeometry x="-0.2182" y="2" relative="1" as="geometry">
            <mxPoint as="offset" />
          </mxGeometry>
        </mxCell>
        <mxCell id="I-rz6IewuSnhswJpcsk6-55" value="" style="endArrow=classic;html=1;rounded=0;" parent="1" source="I-rz6IewuSnhswJpcsk6-45" target="I-rz6IewuSnhswJpcsk6-26" edge="1">
          <mxGeometry width="50" height="50" relative="1" as="geometry">
            <mxPoint x="680" y="1570" as="sourcePoint" />
            <mxPoint x="730" y="1520" as="targetPoint" />
          </mxGeometry>
        </mxCell>
        <mxCell id="I-rz6IewuSnhswJpcsk6-68" value="Manage (CRUD)" style="edgeLabel;html=1;align=center;verticalAlign=middle;resizable=0;points=[];" parent="I-rz6IewuSnhswJpcsk6-55" vertex="1" connectable="0">
          <mxGeometry x="-0.1259" y="1" relative="1" as="geometry">
            <mxPoint as="offset" />
          </mxGeometry>
        </mxCell>
        <mxCell id="I-rz6IewuSnhswJpcsk6-86" value="Comment" style="rounded=0;whiteSpace=wrap;html=1;" parent="1" vertex="1">
          <mxGeometry x="405" y="1980" width="80" height="40" as="geometry" />
        </mxCell>
        <mxCell id="I-rz6IewuSnhswJpcsk6-90" value="Video" style="rounded=0;whiteSpace=wrap;html=1;" parent="1" vertex="1">
          <mxGeometry x="560" y="1890" width="70" height="40" as="geometry" />
        </mxCell>
        <mxCell id="I-rz6IewuSnhswJpcsk6-92" value="Image" style="rounded=0;whiteSpace=wrap;html=1;" parent="1" vertex="1">
          <mxGeometry x="650" y="1890" width="65" height="40" as="geometry" />
        </mxCell>
        <mxCell id="I-rz6IewuSnhswJpcsk6-93" value="Describe&amp;nbsp;" style="rounded=0;whiteSpace=wrap;html=1;" parent="1" vertex="1">
          <mxGeometry x="730" y="1890" width="70" height="40" as="geometry" />
        </mxCell>
        <mxCell id="I-rz6IewuSnhswJpcsk6-104" style="edgeStyle=orthogonalEdgeStyle;rounded=0;orthogonalLoop=1;jettySize=auto;html=1;exitX=0;exitY=1;exitDx=0;exitDy=0;exitPerimeter=0;" parent="1" source="I-rz6IewuSnhswJpcsk6-102" target="I-rz6IewuSnhswJpcsk6-46" edge="1">
          <mxGeometry relative="1" as="geometry" />
        </mxCell>
        <mxCell id="I-rz6IewuSnhswJpcsk6-105" style="edgeStyle=orthogonalEdgeStyle;rounded=0;orthogonalLoop=1;jettySize=auto;html=1;exitX=0;exitY=1;exitDx=0;exitDy=0;exitPerimeter=0;" parent="1" source="I-rz6IewuSnhswJpcsk6-102" target="I-rz6IewuSnhswJpcsk6-43" edge="1">
          <mxGeometry relative="1" as="geometry" />
        </mxCell>
        <mxCell id="I-rz6IewuSnhswJpcsk6-111" style="edgeStyle=orthogonalEdgeStyle;rounded=0;orthogonalLoop=1;jettySize=auto;html=1;exitX=0.5;exitY=0.5;exitDx=0;exitDy=0;exitPerimeter=0;entryX=0.5;entryY=0;entryDx=0;entryDy=0;" parent="1" source="I-rz6IewuSnhswJpcsk6-102" target="I-rz6IewuSnhswJpcsk6-110" edge="1">
          <mxGeometry relative="1" as="geometry" />
        </mxCell>
        <mxCell id="I-rz6IewuSnhswJpcsk6-102" value="MASTER&amp;nbsp;" style="shape=umlActor;verticalLabelPosition=bottom;verticalAlign=top;html=1;outlineConnect=0;strokeWidth=2;fillColor=#FF0000;" parent="1" vertex="1">
          <mxGeometry x="443" y="1190" width="30" height="60" as="geometry" />
        </mxCell>
        <mxCell id="I-rz6IewuSnhswJpcsk6-103" style="edgeStyle=orthogonalEdgeStyle;rounded=0;orthogonalLoop=1;jettySize=auto;html=1;exitX=0;exitY=1;exitDx=0;exitDy=0;exitPerimeter=0;entryX=0.5;entryY=0;entryDx=0;entryDy=0;entryPerimeter=0;" parent="1" source="I-rz6IewuSnhswJpcsk6-102" target="I-rz6IewuSnhswJpcsk6-45" edge="1">
          <mxGeometry relative="1" as="geometry" />
        </mxCell>
        <mxCell id="I-rz6IewuSnhswJpcsk6-106" style="edgeStyle=orthogonalEdgeStyle;rounded=0;orthogonalLoop=1;jettySize=auto;html=1;exitX=0;exitY=1;exitDx=0;exitDy=0;exitPerimeter=0;entryX=0.5;entryY=0;entryDx=0;entryDy=0;entryPerimeter=0;" parent="1" source="I-rz6IewuSnhswJpcsk6-102" target="I-rz6IewuSnhswJpcsk6-47" edge="1">
          <mxGeometry relative="1" as="geometry">
            <Array as="points">
              <mxPoint x="443" y="1300" />
              <mxPoint x="245" y="1300" />
            </Array>
          </mxGeometry>
        </mxCell>
        <mxCell id="I-rz6IewuSnhswJpcsk6-110" value="Reward" style="rounded=1;whiteSpace=wrap;html=1;" parent="1" vertex="1">
          <mxGeometry x="727.5" y="1320" width="72.5" height="90" as="geometry" />
        </mxCell>
      </root>
    </mxGraphModel>
  </diagram>
</mxfile>
